<mxfile host="app.diagrams.net" modified="2023-04-11T00:10:15.648Z" agent="5.0 (Windows NT 10.0; Win64; x64) AppleWebKit/537.36 (KHTML, like Gecko) Chrome/112.0.0.0 Safari/537.36" etag="m4m95EquYsCnCd0gmHL6" version="21.0.6" type="github">
  <diagram id="prtHgNgQTEPvFCAcTncT" name="Page-1">
    <mxGraphModel dx="2390" dy="1333" grid="1" gridSize="10" guides="1" tooltips="1" connect="1" arrows="1" fold="1" page="1" pageScale="1" pageWidth="827" pageHeight="1169" math="0" shadow="0">
      <root>
        <mxCell id="0" />
        <mxCell id="1" parent="0" />
        <mxCell id="q0WLJByVagW70ZT-mmep-17" value="" style="edgeStyle=orthogonalEdgeStyle;rounded=0;orthogonalLoop=1;jettySize=auto;html=1;" edge="1" parent="1" source="q0WLJByVagW70ZT-mmep-1" target="q0WLJByVagW70ZT-mmep-4">
          <mxGeometry relative="1" as="geometry" />
        </mxCell>
        <mxCell id="q0WLJByVagW70ZT-mmep-1" value="Planning" style="shape=rect;rounded=1;whiteSpace=wrap;html=1;shadow=0;strokeColor=none;fillColor=#64BBE2;arcSize=30;fontSize=14;spacingLeft=42;fontStyle=1;fontColor=#FFFFFF;align=left;" vertex="1" parent="1">
          <mxGeometry x="70" y="50" width="290" height="40" as="geometry" />
        </mxCell>
        <mxCell id="q0WLJByVagW70ZT-mmep-2" value="1" style="shape=ellipse;perimeter=ellipsePerimeter;fontSize=22;fontStyle=1;shadow=0;strokeColor=#ffffff;fillColor=#10739E;strokeWidth=4;fontColor=#ffffff;align=center;whiteSpace=wrap;html=1;" vertex="1" parent="1">
          <mxGeometry x="40" y="40" width="60" height="60" as="geometry" />
        </mxCell>
        <mxCell id="q0WLJByVagW70ZT-mmep-18" value="" style="edgeStyle=orthogonalEdgeStyle;rounded=0;orthogonalLoop=1;jettySize=auto;html=1;" edge="1" parent="1" source="q0WLJByVagW70ZT-mmep-3" target="q0WLJByVagW70ZT-mmep-6">
          <mxGeometry relative="1" as="geometry" />
        </mxCell>
        <mxCell id="q0WLJByVagW70ZT-mmep-3" value="Design" style="shape=rect;rounded=1;whiteSpace=wrap;html=1;shadow=0;strokeColor=none;fillColor=#F8C382;arcSize=30;fontSize=14;spacingLeft=42;fontStyle=1;fontColor=#FFFFFF;align=left;" vertex="1" parent="1">
          <mxGeometry x="430" y="50" width="290" height="40" as="geometry" />
        </mxCell>
        <mxCell id="q0WLJByVagW70ZT-mmep-4" value="2" style="shape=ellipse;perimeter=ellipsePerimeter;fontSize=22;fontStyle=1;shadow=0;strokeColor=#ffffff;fillColor=#F2931E;strokeWidth=4;fontColor=#ffffff;align=center;whiteSpace=wrap;html=1;" vertex="1" parent="1">
          <mxGeometry x="400" y="40" width="60" height="60" as="geometry" />
        </mxCell>
        <mxCell id="q0WLJByVagW70ZT-mmep-19" value="" style="edgeStyle=orthogonalEdgeStyle;rounded=0;orthogonalLoop=1;jettySize=auto;html=1;" edge="1" parent="1" source="q0WLJByVagW70ZT-mmep-5" target="q0WLJByVagW70ZT-mmep-8">
          <mxGeometry relative="1" as="geometry" />
        </mxCell>
        <mxCell id="q0WLJByVagW70ZT-mmep-5" value="Development" style="shape=rect;rounded=1;whiteSpace=wrap;html=1;shadow=0;strokeColor=none;fillColor=#F08E81;arcSize=30;fontSize=14;spacingLeft=42;fontStyle=1;fontColor=#FFFFFF;align=left;" vertex="1" parent="1">
          <mxGeometry x="790" y="50" width="290" height="40" as="geometry" />
        </mxCell>
        <mxCell id="q0WLJByVagW70ZT-mmep-6" value="3" style="shape=ellipse;perimeter=ellipsePerimeter;fontSize=22;fontStyle=1;shadow=0;strokeColor=#ffffff;fillColor=#AE4132;strokeWidth=4;fontColor=#ffffff;align=center;whiteSpace=wrap;html=1;" vertex="1" parent="1">
          <mxGeometry x="760" y="40" width="60" height="60" as="geometry" />
        </mxCell>
        <mxCell id="q0WLJByVagW70ZT-mmep-20" value="" style="edgeStyle=orthogonalEdgeStyle;rounded=0;orthogonalLoop=1;jettySize=auto;html=1;" edge="1" parent="1" source="q0WLJByVagW70ZT-mmep-7" target="q0WLJByVagW70ZT-mmep-10">
          <mxGeometry relative="1" as="geometry" />
        </mxCell>
        <mxCell id="q0WLJByVagW70ZT-mmep-7" value="Testing" style="shape=rect;rounded=1;whiteSpace=wrap;html=1;shadow=0;strokeColor=none;fillColor=#5D7F99;arcSize=30;fontSize=14;spacingLeft=42;fontStyle=1;fontColor=#FFFFFF;align=left;" vertex="1" parent="1">
          <mxGeometry x="1150" y="50" width="290" height="40" as="geometry" />
        </mxCell>
        <mxCell id="q0WLJByVagW70ZT-mmep-8" value="4" style="shape=ellipse;perimeter=ellipsePerimeter;fontSize=22;fontStyle=1;shadow=0;strokeColor=#ffffff;fillColor=#23445D;strokeWidth=4;fontColor=#ffffff;align=center;whiteSpace=wrap;html=1;" vertex="1" parent="1">
          <mxGeometry x="1120" y="40" width="60" height="60" as="geometry" />
        </mxCell>
        <mxCell id="q0WLJByVagW70ZT-mmep-9" value="Launch" style="shape=rect;rounded=1;whiteSpace=wrap;html=1;shadow=0;strokeColor=none;fillColor=#61C6CE;arcSize=30;fontSize=14;spacingLeft=42;fontStyle=1;fontColor=#FFFFFF;align=left;" vertex="1" parent="1">
          <mxGeometry x="1510" y="50" width="290" height="40" as="geometry" />
        </mxCell>
        <mxCell id="q0WLJByVagW70ZT-mmep-10" value="5" style="shape=ellipse;perimeter=ellipsePerimeter;fontSize=22;fontStyle=1;shadow=0;strokeColor=#ffffff;fillColor=#12AAB5;strokeWidth=4;fontColor=#ffffff;align=center;whiteSpace=wrap;html=1;" vertex="1" parent="1">
          <mxGeometry x="1480" y="40" width="60" height="60" as="geometry" />
        </mxCell>
        <mxCell id="q0WLJByVagW70ZT-mmep-11" value="&lt;ul&gt;&lt;li&gt;&lt;b&gt;&lt;font color=&quot;#ffffff&quot;&gt;Define the purpose of the website and its target audience&lt;/font&gt;&lt;/b&gt;&lt;/li&gt;&lt;li&gt;&lt;b&gt;&lt;font color=&quot;#ffffff&quot;&gt;Research similar websites and gather inspiration&lt;/font&gt;&lt;/b&gt;&lt;/li&gt;&lt;li&gt;&lt;b&gt;&lt;font color=&quot;#ffffff&quot;&gt;Create a sitemap and plan the site structure&lt;/font&gt;&lt;/b&gt;&lt;/li&gt;&lt;li&gt;&lt;b&gt;&lt;font color=&quot;#ffffff&quot;&gt;Determine the content needed for each page&lt;/font&gt;&lt;/b&gt;&lt;/li&gt;&lt;/ul&gt;" style="rounded=1;whiteSpace=wrap;html=1;arcSize=5;fillColor=#64bbe2;strokeColor=none;align=left;" vertex="1" parent="1">
          <mxGeometry x="40" y="120" width="320" height="360" as="geometry" />
        </mxCell>
        <mxCell id="q0WLJByVagW70ZT-mmep-23" value="&lt;ul&gt;&lt;li&gt;&lt;span style=&quot;background-color: initial;&quot;&gt;&lt;b&gt;&lt;font color=&quot;#ffffff&quot;&gt;Develop a wireframe or mockup of the website&lt;/font&gt;&lt;/b&gt;&lt;/span&gt;&lt;/li&gt;&lt;li&gt;&lt;span style=&quot;background-color: initial;&quot;&gt;&lt;b&gt;&lt;font color=&quot;#ffffff&quot;&gt;Choose the color scheme and typography for the site&lt;/font&gt;&lt;/b&gt;&lt;/span&gt;&lt;/li&gt;&lt;li&gt;&lt;span style=&quot;background-color: initial;&quot;&gt;&lt;b&gt;&lt;font color=&quot;#ffffff&quot;&gt;Create or source images and graphics to be used on the site&lt;/font&gt;&lt;/b&gt;&lt;/span&gt;&lt;/li&gt;&lt;li&gt;&lt;span style=&quot;background-color: initial;&quot;&gt;&lt;b&gt;&lt;font color=&quot;#ffffff&quot;&gt;Develop a responsive design that is mobile-friendly&lt;/font&gt;&lt;/b&gt;&lt;/span&gt;&lt;/li&gt;&lt;/ul&gt;" style="rounded=1;whiteSpace=wrap;html=1;arcSize=5;fillColor=#f8c382;strokeColor=none;align=left;" vertex="1" parent="1">
          <mxGeometry x="400" y="120" width="320" height="360" as="geometry" />
        </mxCell>
        <mxCell id="q0WLJByVagW70ZT-mmep-24" value="&lt;ul&gt;&lt;li&gt;&lt;b style=&quot;background-color: initial;&quot;&gt;&lt;font color=&quot;#ffffff&quot;&gt;Install WordPress on the hosting server&lt;/font&gt;&lt;/b&gt;&lt;/li&gt;&lt;li&gt;&lt;b style=&quot;background-color: initial;&quot;&gt;&lt;font color=&quot;#ffffff&quot;&gt;Customize the WordPress settings and install necessary plugins&lt;/font&gt;&lt;/b&gt;&lt;/li&gt;&lt;li&gt;&lt;b style=&quot;background-color: initial;&quot;&gt;&lt;font color=&quot;#ffffff&quot;&gt;Develop the website according to the sitemap and design specifications&lt;/font&gt;&lt;/b&gt;&lt;/li&gt;&lt;li&gt;&lt;b style=&quot;background-color: initial;&quot;&gt;&lt;font color=&quot;#ffffff&quot;&gt;Ensure that the website is optimized for performance and search engines&lt;/font&gt;&lt;/b&gt;&lt;/li&gt;&lt;/ul&gt;" style="rounded=1;whiteSpace=wrap;html=1;arcSize=5;fillColor=#f08e81;strokeColor=none;align=left;" vertex="1" parent="1">
          <mxGeometry x="760" y="120" width="320" height="360" as="geometry" />
        </mxCell>
        <mxCell id="q0WLJByVagW70ZT-mmep-25" value="&lt;ul&gt;&lt;li&gt;&lt;b style=&quot;color: rgb(255, 255, 255); background-color: initial;&quot;&gt;Test the website on different browsers and devices&lt;/b&gt;&lt;br&gt;&lt;/li&gt;&lt;li&gt;&lt;font color=&quot;#ffffff&quot;&gt;&lt;b&gt;Check for broken links and other errors&lt;/b&gt;&lt;/font&gt;&lt;/li&gt;&lt;li&gt;&lt;font color=&quot;#ffffff&quot;&gt;&lt;b&gt;Ensure that the website is accessible to users with disabilities&lt;/b&gt;&lt;/font&gt;&lt;/li&gt;&lt;li&gt;&lt;font color=&quot;#ffffff&quot;&gt;&lt;b&gt;Get feedback from stakeholders and make necessary changes&lt;/b&gt;&lt;/font&gt;&lt;/li&gt;&lt;/ul&gt;" style="rounded=1;whiteSpace=wrap;html=1;arcSize=5;fillColor=#5d7f99;strokeColor=none;align=left;" vertex="1" parent="1">
          <mxGeometry x="1120" y="120" width="320" height="360" as="geometry" />
        </mxCell>
        <mxCell id="q0WLJByVagW70ZT-mmep-26" value="&lt;ul&gt;&lt;li&gt;&lt;b style=&quot;color: rgb(255, 255, 255); background-color: initial;&quot;&gt;Transfer the website to the live server&lt;/b&gt;&lt;br&gt;&lt;/li&gt;&lt;li&gt;&lt;font color=&quot;#ffffff&quot;&gt;&lt;b&gt;Install security and backup plugins&lt;/b&gt;&lt;/font&gt;&lt;/li&gt;&lt;li&gt;&lt;font color=&quot;#ffffff&quot;&gt;&lt;b&gt;Ensure that the website is optimized for speed and performance&lt;/b&gt;&lt;/font&gt;&lt;/li&gt;&lt;li&gt;&lt;font color=&quot;#ffffff&quot;&gt;&lt;b&gt;Test the website again before launching it to the public&lt;/b&gt;&lt;/font&gt;&lt;/li&gt;&lt;/ul&gt;" style="rounded=1;whiteSpace=wrap;html=1;arcSize=5;fillColor=#61c6ce;strokeColor=none;align=left;" vertex="1" parent="1">
          <mxGeometry x="1480" y="120" width="320" height="360" as="geometry" />
        </mxCell>
      </root>
    </mxGraphModel>
  </diagram>
</mxfile>
